<?xml version="1.0" encoding="UTF-8"?>
<svg width="92.682mm" height="92.684mm" version="1.1" viewBox="0 0 92.682 92.684" xmlns="http://www.w3.org/2000/svg" xmlns:cc="http://creativecommons.org/ns#" xmlns:dc="http://purl.org/dc/elements/1.1/" xmlns:rdf="http://www.w3.org/1999/02/22-rdf-syntax-ns#" xmlns:xlink="http://www.w3.org/1999/xlink">
 <defs>
  <radialGradient id="radialGradient4622" cx="245.39" cy="354.57" r="234.94" fx="248.94" gradientTransform="translate(-41.85,-50.912)" gradientUnits="userSpaceOnUse">
   <stop stop-color="#b7c3cc" offset="0"/>
   <stop stop-color="#001e29" offset="1"/>
  </radialGradient>
 </defs>
 <metadata>
  <rdf:RDF>
   <cc:Work rdf:about="">
    <dc:format>image/svg+xml</dc:format>
    <dc:type rdf:resource="http://purl.org/dc/dcmitype/StillImage"/>
    <dc:title/>
   </cc:Work>
  </rdf:RDF>
 </metadata>
 <g transform="translate(-15.647 -114.59)">
  <g transform="matrix(.26458 0 0 .26458 7.4191 107.94)">
   <g fill-rule="evenodd">
    <path d="m362.49 200.25a156.25 156.25 0 1 1-312.5 0 156.25 156.25 0 1 1 312.5 0z" fill="#000024" stroke-width="1.0102"/>
    <path d="m164.32 56.438c-25.06 6.447-47.957 20.982-65.936 39.456-33.589 34.689-49.415 85.84-39.274 133.3 7.7684 38.332 30.319 73.818 63.261 95.34 39.082 26.542 90.824 33.344 135.13 16.523 44.589-15.935 80.583-53.959 92.968-99.846 14.03-47.365 2.42-101-30.04-138.25-27.522-32.74-69.296-52.414-112.07-52.8-2.4338-0.40982-30.229 1.5565-44.039 6.2796z" fill="url(#radialGradient4622)"/>
    <path d="m297.02 188.91c-10.37 17.497 15.281 19.939 24.511 25.141-3.4576-31.524 10.512-20.807 13.141-30.822-2.4603-15.476-20.24-18.289-30.195-28.185-0.36892-19.454-33.444-17.876-30.691-31.892-5.3458-59.729-15.582-5.0632-17.324-14.89-11.086 12.896-14.512-1.6954-11.166-10.995 0.26364-11.365-18.639-11.91-25.607-6.5757-5.8842 3.1388-14.403 3.9638-17.373 11.046-13.66 2.7421-12.28-17.783-26.048-16.916-15.276-6.4266-21.571-23.77-33.99-13.45-8.9365 2.8834-27.358 38.752-33.694 23.765-13.5-9.5163-20.451 15.279-20.026 25.654-6.3485 13.802-17.899 25.142-24.397 39.356-8.0969 13.6-8.0574 31.852-2.7715 46.369 16.911-8.3049 18.513 27.307 24.313 42.266 8.439 10.014 21.898-12.821 25.417-6.9099 22.751 14.162-5.2534 18.337-1.2166 29.083 4.539 15.527 24.377 5.6814 35.735 9.2032 4.7599 1.8134 10.807 12.467 13.777 3.1751-1.815-6.8086-5.6283-13.445 4.7747-13.371 7.3152-6.3929 17.349-5.3491 24.821-7.2415 9.0393-11.572-10.092-19.333-4.8746-30.443 2.8779-11.759-12.73-8.4941-10.462-18.846-7.0124-5.8828-11.048-16.424 0.22233-20.807 7.9487-5.15 29.707 5.1288 24.31-11.199-6.8963-0.46855-16.33-6.6026-8.8168-14.327 10.756-7.5046 26.836 6.3362 36.887-4.9453 1.0925-5.4659 4.6002-20.74 11.751-10.347-2.0036 12.706 4.4139 23.496 16.934 28.605 5.6256 3.7827 11.442 24.659 18.963 12.144-10.579-15.807-1.3253-36.935 21.493-9.7167-0.27777 2.0581-0.63554 4.9085 1.6013 6.0725zm-112.57-59.732c-3.3727-9.642-15.855 0.88715-7.0124 5.9448-1.4949 18.168-23.383 19.29-37.295 19.685-8.7173 4.2923-20.669 6.5967-27.583 10.788-1.5637 11.397 17.747 10.622 15.712 22.827 8.4646 11.957 22.01 19.653 28.373 33.172 12.227 10.86 6.5682-16.046-1.1103-17.921-11.846-4.4912-26.133-24.017-7.6284-30.074 12.233-3.4412 6.304-25.137 22.916-20.183 15.144 3.9218 14.776-14.074 24.42-20.796 2.2128-9.6425-5.7023-6.6942-10.791-3.4427z" fill-opacity=".25126"/>
   </g>
   <path d="m358.45 201.09c0 83.168-68.058 150.67-151.91 150.67s-151.91-67.499-151.91-150.67 64.682-150.67 151.91-150.67c89.933 0 151.91 67.499 151.91 150.67z" fill="#000024" fill-opacity=".86432"/>
  </g>
 </g>
 <g fill="#fff" fill-opacity=".33333" aria-label="?">
  <path d="m37.427 57.422q0-4.3215 1.4111-7.7611 1.4111-3.4396 5.8208-5.9972 1.3229-0.79375 3.2632-1.7639 1.9403-1.0583 3.7924-2.4694 1.8521-1.4111 3.0868-3.2632 1.3229-1.9403 1.3229-4.4097 0-1.8521-0.70556-3.2632-0.70556-1.4111-1.8521-2.3812t-2.734-1.4111q-1.4993-0.52917-3.0868-0.52917-1.9403 0-3.5278 0.70556-1.5875 0.61736-2.9104 1.6757-1.2347 0.97014-2.2931 2.2931-0.97014 1.2347-1.6757 2.3812l-7.6729-5.2917q1.1465-2.734 2.9986-4.8507 1.9403-2.1167 4.3215-3.5278 2.4694-1.4993 5.2917-2.2049 2.8222-0.79375 5.8208-0.79375 3.3514 0 6.6146 0.97014 3.2632 0.97014 5.8208 3.0868 2.6458 2.1167 4.2333 5.4681 1.6757 3.2632 1.6757 7.8493 0 2.8222-0.70556 5.0271-0.61736 2.1167-1.8521 3.8806-1.2347 1.7639-2.9104 3.175-1.6757 1.4111-3.7924 2.734-1.7639 1.0583-3.5278 2.0285-1.7639 0.97014-3.2632 2.2049-1.4111 1.1465-2.3812 2.734-0.88194 1.4993-0.88194 3.7042zm0.17639 20.549v-12.171h9.7896v12.171z" fill="#fff" fill-opacity=".33333" stroke-width=".26458"/>
 </g>
</svg>
