<?xml version="1.0" encoding="UTF-8" standalone="no"?>
<svg
   xmlns:dc="http://purl.org/dc/elements/1.1/"
   xmlns:cc="http://creativecommons.org/ns#"
   xmlns:rdf="http://www.w3.org/1999/02/22-rdf-syntax-ns#"
   xmlns:svg="http://www.w3.org/2000/svg"
   xmlns="http://www.w3.org/2000/svg"
   id="svg8"
   version="1.1"
   viewBox="0 0 94.919304 16.707556"
   height="16.707556mm"
   width="94.919304mm">
  <defs
     id="defs2">
    <clipPath
       id="clipPath890"
       clipPathUnits="userSpaceOnUse">
      <ellipse
         style="fill:#ffca66;fill-opacity:1;stroke:#000000;stroke-width:0.29875848;stroke-opacity:0.5098038"
         id="ellipse892"
         cx="139.07217"
         cy="43.649025"
         rx="5.5673323"
         ry="5.9091215" />
    </clipPath>
  </defs>
  <metadata
     id="metadata5">
    <rdf:RDF>
      <cc:Work
         rdf:about="">
        <dc:format>image/svg+xml</dc:format>
        <dc:type
           rdf:resource="http://purl.org/dc/dcmitype/StillImage" />
        <dc:title></dc:title>
      </cc:Work>
    </rdf:RDF>
  </metadata>
  <g
     transform="translate(-43.054207,-23.271303)"
     id="layer1">
    <g
       transform="translate(-6.815373,-9.7553378)"
       id="g925">
      <path
         id="path819"
         style="font-style:normal;font-variant:normal;font-weight:300;font-stretch:normal;font-size:22.57777786px;line-height:1.25;font-family:Raleway;-inkscape-font-specification:'Raleway Light';letter-spacing:0px;word-spacing:0px;fill:#000000;fill-opacity:1;stroke:none;stroke-width:0.26458332"
         d="m 58.358824,49.508419 -4.583289,-6.276622 -2.777067,2.551289 v 3.725333 H 49.86958 V 33.026641 h 1.128888 v 11.514667 l 7.134578,-6.750756 h 1.309511 l -4.899377,4.763911 5.057422,6.953956 z" />
      <path
         id="path821"
         style="font-style:normal;font-variant:normal;font-weight:300;font-stretch:normal;font-size:22.57777786px;line-height:1.25;font-family:Raleway;-inkscape-font-specification:'Raleway Light';letter-spacing:0px;word-spacing:0px;fill:#000000;fill-opacity:1;stroke:none;stroke-width:0.26458332"
         d="m 65.967511,49.734197 q -1.241778,0 -2.302933,-0.474134 -1.038578,-0.496711 -1.806223,-1.332088 -0.767644,-0.835378 -1.196622,-1.941689 -0.428978,-1.106311 -0.428978,-2.325511 0,-1.241778 0.428978,-2.348089 0.451556,-1.106311 1.2192,-1.941689 0.767645,-0.835378 1.806222,-1.309511 1.061156,-0.496711 2.280356,-0.496711 1.2192,0 2.257778,0.496711 1.038577,0.474133 1.806222,1.309511 0.790222,0.835378 1.2192,1.941689 0.451556,1.106311 0.451556,2.348089 0,1.2192 -0.451556,2.325511 -0.428978,1.106311 -1.196622,1.941689 -0.767645,0.835377 -1.8288,1.332088 -1.038578,0.474134 -2.257778,0.474134 z M 61.361644,43.70593 q 0,1.038578 0.361245,1.964267 0.361244,0.903111 0.970844,1.580444 0.632178,0.677334 1.467556,1.083734 0.835377,0.383822 1.783644,0.383822 0.948267,0 1.783645,-0.383822 0.835377,-0.4064 1.467555,-1.106312 0.632178,-0.699911 0.993422,-1.603022 0.361245,-0.925689 0.361245,-1.986844 0,-1.038578 -0.361245,-1.941689 -0.361244,-0.925689 -0.993422,-1.603022 -0.632178,-0.699911 -1.467555,-1.106311 -0.8128,-0.4064 -1.761067,-0.4064 -0.948267,0 -1.783645,0.4064 -0.835377,0.4064 -1.467555,1.106311 -0.6096,0.699911 -0.993422,1.648177 -0.361245,0.925689 -0.361245,1.964267 z" />
      <path
         id="path823"
         style="font-style:normal;font-variant:normal;font-weight:300;font-stretch:normal;font-size:22.57777786px;line-height:1.25;font-family:Raleway;-inkscape-font-specification:'Raleway Light';letter-spacing:0px;word-spacing:0px;fill:#000000;fill-opacity:1;stroke:none;stroke-width:0.26458332"
         d="m 78.136913,49.734197 q -1.354667,0 -2.596445,-0.451556 -1.241778,-0.451555 -2.167466,-1.354666 l 0.564444,-0.767645 q 0.948267,0.857956 1.964267,1.264356 1.016,0.4064 2.2352,0.4064 1.535289,0 2.460978,-0.632178 0.948266,-0.654756 0.948266,-1.806222 0,-0.541867 -0.248355,-0.903111 -0.225778,-0.383823 -0.699911,-0.632178 -0.474134,-0.270934 -1.174045,-0.474134 -0.699911,-0.2032 -1.6256,-0.428977 -0.993422,-0.225778 -1.738489,-0.451556 -0.722489,-0.225778 -1.196622,-0.541867 -0.474133,-0.316088 -0.722489,-0.767644 -0.225778,-0.451556 -0.225778,-1.151467 0,-0.880533 0.338667,-1.535289 0.338667,-0.654755 0.925689,-1.083733 0.6096,-0.428978 1.377244,-0.632178 0.790222,-0.225777 1.670756,-0.225777 1.377244,0 2.4384,0.474133 1.061155,0.451555 1.648178,1.174044 l -0.632178,0.6096 q -0.587022,-0.677333 -1.535289,-1.016 -0.925689,-0.338666 -1.986845,-0.338666 -0.654755,0 -1.241777,0.135466 -0.564445,0.135467 -0.993423,0.428978 -0.428977,0.293511 -0.677333,0.767645 -0.248355,0.451555 -0.248355,1.083733 0,0.519289 0.158044,0.835378 0.180622,0.316089 0.541867,0.541866 0.383822,0.225778 0.970844,0.4064 0.587022,0.158045 1.399822,0.361245 1.106311,0.270933 1.964267,0.519289 0.857956,0.248355 1.4224,0.6096 0.587022,0.361244 0.880533,0.857955 0.316089,0.496711 0.316089,1.264356 0,1.580444 -1.241777,2.528711 -1.2192,0.925689 -3.273778,0.925689 z" />
      <path
         id="path825"
         style="font-style:normal;font-variant:normal;font-weight:300;font-stretch:normal;font-size:22.57777786px;line-height:1.25;font-family:Raleway;-inkscape-font-specification:'Raleway Light';letter-spacing:0px;word-spacing:0px;fill:#000000;fill-opacity:1;stroke:none;stroke-width:0.26458332"
         d="M 102.52089,49.508419 H 101.392 v -6.547556 q 0,-2.2352 -0.69991,-3.296355 -0.67734,-1.061156 -2.099736,-1.061156 -0.722488,0 -1.377244,0.270934 -0.654756,0.270933 -1.196622,0.767644 -0.541867,0.474133 -0.948267,1.151467 -0.383822,0.654755 -0.6096,1.467555 v 7.247467 h -1.128889 v -6.547556 q 0,-2.257777 -0.677333,-3.296355 -0.677333,-1.061156 -2.099733,-1.061156 -0.722489,0 -1.377245,0.270934 -0.632178,0.248355 -1.174044,0.745066 -0.541867,0.474134 -0.970845,1.151467 -0.4064,0.654756 -0.632178,1.467556 v 7.270044 H 85.271466 V 37.767975 h 1.061155 v 2.799644 q 0.722489,-1.4224 1.896533,-2.212622 1.174045,-0.790222 2.596445,-0.790222 1.490133,0 2.415822,0.880533 0.925689,0.880533 1.106311,2.302933 1.670756,-3.183466 4.605867,-3.183466 1.919111,0 2.731911,1.377244 0.83538,1.354667 0.83538,3.815644 z" />
      <path
         id="path827"
         style="font-style:normal;font-variant:normal;font-weight:300;font-stretch:normal;font-size:22.57777786px;line-height:1.25;font-family:Raleway;-inkscape-font-specification:'Raleway Light';letter-spacing:0px;word-spacing:0px;fill:#000000;fill-opacity:1;stroke:none;stroke-width:0.26458332"
         d="m 110.85207,49.734197 q -1.24178,0 -2.30294,-0.474134 -1.03857,-0.496711 -1.80622,-1.332088 -0.76764,-0.835378 -1.19662,-1.941689 -0.42898,-1.106311 -0.42898,-2.325511 0,-1.241778 0.42898,-2.348089 0.45155,-1.106311 1.2192,-1.941689 0.76764,-0.835378 1.80622,-1.309511 1.06116,-0.496711 2.28036,-0.496711 1.2192,0 2.25777,0.496711 1.03858,0.474133 1.80623,1.309511 0.79022,0.835378 1.2192,1.941689 0.45155,1.106311 0.45155,2.348089 0,1.2192 -0.45155,2.325511 -0.42898,1.106311 -1.19663,1.941689 -0.76764,0.835377 -1.8288,1.332088 -1.03857,0.474134 -2.25777,0.474134 z M 106.2462,43.70593 q 0,1.038578 0.36124,1.964267 0.36125,0.903111 0.97085,1.580444 0.63218,0.677334 1.46755,1.083734 0.83538,0.383822 1.78365,0.383822 0.94827,0 1.78364,-0.383822 0.83538,-0.4064 1.46756,-1.106312 0.63218,-0.699911 0.99342,-1.603022 0.36125,-0.925689 0.36125,-1.986844 0,-1.038578 -0.36125,-1.941689 -0.36124,-0.925689 -0.99342,-1.603022 -0.63218,-0.699911 -1.46756,-1.106311 -0.8128,-0.4064 -1.76106,-0.4064 -0.94827,0 -1.78365,0.4064 -0.83538,0.4064 -1.46755,1.106311 -0.6096,0.699911 -0.99343,1.648177 -0.36124,0.925689 -0.36124,1.964267 z" />
      <path
         id="path829"
         style="font-style:normal;font-variant:normal;font-weight:300;font-stretch:normal;font-size:22.57777786px;line-height:1.25;font-family:Raleway;-inkscape-font-specification:'Raleway Light';letter-spacing:0px;word-spacing:0px;fill:#000000;fill-opacity:1;stroke:none;stroke-width:0.26458332"
         d="m 124.85026,38.783975 q -1.58044,0.04516 -2.77706,0.948266 -1.17405,0.880534 -1.64818,2.4384 v 7.337778 h -1.12889 V 37.767975 h 1.08373 v 2.889955 q 0.6096,-1.241778 1.60303,-2.009422 1.016,-0.790222 2.16746,-0.903111 0.22578,-0.02258 0.4064,-0.02258 0.18063,0 0.29351,0 z" />
      <path
         id="path831"
         style="font-style:normal;font-variant:normal;font-weight:300;font-stretch:normal;font-size:22.57777786px;line-height:1.25;font-family:Raleway;-inkscape-font-specification:'Raleway Light';letter-spacing:0px;word-spacing:0px;fill:#000000;fill-opacity:1;stroke:none;stroke-width:0.26458332"
         d="m 132.54928,38.783975 q -1.58045,0.04516 -2.77707,0.948266 -1.17404,0.880534 -1.64818,2.4384 v 7.337778 h -1.12889 V 37.767975 h 1.08374 v 2.889955 q 0.6096,-1.241778 1.60302,-2.009422 1.016,-0.790222 2.16747,-0.903111 0.22577,-0.02258 0.4064,-0.02258 0.18062,0 0.29351,0 z" />
      <ellipse
         style="fill:#ffca66;fill-opacity:1;stroke:#000000;stroke-width:0.29875848;stroke-opacity:0.5098038"
         id="path844"
         cx="139.07217"
         cy="43.649025"
         rx="5.5673323"
         ry="5.9091215" />
      <path
         id="path833"
         style="font-style:normal;font-variant:normal;font-weight:300;font-stretch:normal;font-size:22.57777786px;line-height:1.25;font-family:Raleway;-inkscape-font-specification:'Raleway Light';letter-spacing:0px;word-spacing:0px;fill:#000000;fill-opacity:1;stroke:none;stroke-width:0.26458332"
         d="m 139.02907,49.734197 q -1.24178,0 -2.30293,-0.474134 -1.03858,-0.496711 -1.80623,-1.332088 -0.76764,-0.835378 -1.19662,-1.941689 -0.42898,-1.106311 -0.42898,-2.325511 0,-1.241778 0.42898,-2.348089 0.45156,-1.106311 1.2192,-1.941689 0.76765,-0.835378 1.80622,-1.309511 1.06116,-0.496711 2.28036,-0.496711 1.2192,0 2.25778,0.496711 1.03857,0.474133 1.80622,1.309511 0.79022,0.835378 1.2192,1.941689 0.45155,1.106311 0.45155,2.348089 0,1.2192 -0.45155,2.325511 -0.42898,1.106311 -1.19662,1.941689 -0.76765,0.835377 -1.8288,1.332088 -1.03858,0.474134 -2.25778,0.474134 z M 134.4232,43.70593 q 0,1.038578 0.36125,1.964267 0.36124,0.903111 0.97084,1.580444 0.63218,0.677334 1.46756,1.083734 0.83537,0.383822 1.78364,0.383822 0.94827,0 1.78365,-0.383822 0.83537,-0.4064 1.46755,-1.106312 0.63218,-0.699911 0.99342,-1.603022 0.36125,-0.925689 0.36125,-1.986844 0,-1.038578 -0.36125,-1.941689 -0.36124,-0.925689 -0.99342,-1.603022 -0.63218,-0.699911 -1.46755,-1.106311 -0.8128,-0.4064 -1.76107,-0.4064 -0.94827,0 -1.78365,0.4064 -0.83537,0.4064 -1.46755,1.106311 -0.6096,0.699911 -0.99342,1.648177 -0.36125,0.925689 -0.36125,1.964267 z" />
      <circle
         style="fill:#000000;fill-opacity:1;stroke:none;stroke-width:0.28648236;stroke-opacity:0.5098038"
         id="path844-3"
         cx="142.83353"
         cy="44.171246"
         r="5.5"
         clip-path="url(#clipPath890)" />
    </g>
  </g>
</svg>
